<?xml version="1.0" encoding="UTF-8"?>
<svg id="Ebene_2" data-name="Ebene 2" xmlns="http://www.w3.org/2000/svg" viewBox="0 0 253.44 64.88">
  <defs>
    <style>
      .cls-1, .cls-2 {
        fill: #1895bb;
      }

      .cls-3, .cls-4 {
        fill: #264759;
      }

      .cls-4 {
        stroke: #264759;
      }

      .cls-4, .cls-2 {
        stroke-miterlimit: 10;
      }

      .cls-5 {
        fill: #1e3e4f;
      }

      .cls-2 {
        stroke: #1895bb;
      }
    </style>
  </defs>
  <g>
    <path class="cls-1" d="M63.42,10.31h9.6v3.2h-6.08v5.92h4.83v3.2h-4.83v6.88h6.08v3.2h-9.6V10.31Z"/>
    <path class="cls-1" d="M76.96,10.31h3.52v19.2h5.79v3.2h-9.31V10.31Z"/>
    <path class="cls-1" d="M89.89,10.31h9.6v3.2h-6.08v5.92h4.83v3.2h-4.83v6.88h6.08v3.2h-9.6V10.31Z"/>
    <path class="cls-1" d="M103.42,10.31h3.52v9.44l4.48-9.44h3.52l-4.19,8.22,4.26,14.17h-3.68l-2.98-9.98-1.41,2.85v7.14h-3.52V10.31Z"/>
    <path class="cls-1" d="M121.34,13.51h-3.68v-3.2h10.88v3.2h-3.68v19.2h-3.52V13.51Z"/>
    <path class="cls-1" d="M132.16,10.31h5.22c3.65,0,5.22,1.7,5.22,5.15v1.38c0,2.3-.74,3.78-2.3,4.42v.06c1.76.54,2.34,2.21,2.34,4.74v3.94c0,1.09.03,1.89.38,2.72h-3.58c-.19-.58-.32-.93-.32-2.75v-4.1c0-2.08-.61-2.75-2.21-2.75h-1.22v9.6h-3.52V10.31ZM136.96,19.91c1.31,0,2.11-.58,2.11-2.37v-1.73c0-1.6-.54-2.3-1.79-2.3h-1.6v6.4h1.28Z"/>
    <path class="cls-1" d="M146.72,27.4v-11.78c0-3.58,1.89-5.63,5.34-5.63s5.34,2.05,5.34,5.63v11.78c0,3.58-1.89,5.63-5.34,5.63s-5.34-2.05-5.34-5.63ZM153.89,27.62v-12.22c0-1.6-.7-2.21-1.82-2.21s-1.82.61-1.82,2.21v12.22c0,1.6.7,2.21,1.82,2.21s1.82-.61,1.82-2.21Z"/>
    <path class="cls-1" d="M164.32,13.51h-3.68v-3.2h10.88v3.2h-3.68v19.2h-3.52V13.51Z"/>
    <path class="cls-1" d="M175.13,10.31h9.6v3.2h-6.08v5.92h4.83v3.2h-4.83v6.88h6.08v3.2h-9.6V10.31Z"/>
    <path class="cls-1" d="M188.45,27.53v-12.03c0-3.46,1.79-5.5,5.18-5.5s5.18,2.05,5.18,5.5v2.37h-3.33v-2.59c0-1.47-.7-2.08-1.76-2.08s-1.76.61-1.76,2.08v12.51c0,1.47.7,2.05,1.76,2.05s1.76-.58,1.76-2.05v-3.42h3.33v3.17c0,3.46-1.79,5.5-5.18,5.5s-5.18-2.05-5.18-5.5Z"/>
    <path class="cls-1" d="M202.85,10.31h3.52v9.12h3.78v-9.12h3.52v22.4h-3.52v-10.08h-3.78v10.08h-3.52V10.31Z"/>
    <path class="cls-1" d="M218.21,10.31h4.42l3.42,13.41h.06v-13.41h3.14v22.4h-3.62l-4.22-16.35h-.06v16.35h-3.14V10.31Z"/>
    <path class="cls-1" d="M233.79,10.31h3.52v22.4h-3.52V10.31Z"/>
    <path class="cls-1" d="M241.85,10.31h3.52v9.44l4.48-9.44h3.52l-4.19,8.22,4.26,14.17h-3.68l-2.98-9.98-1.41,2.85v7.14h-3.52V10.31Z"/>
    <path class="cls-3" d="M63.59,39.52h5.87c4.1,0,5.87,1.91,5.87,5.8v1.55c0,2.59-.83,4.25-2.59,4.97v.07c1.98.61,2.63,2.48,2.63,5.33v4.43c0,1.22.04,2.12.43,3.06h-4.03c-.22-.65-.36-1.04-.36-3.1v-4.61c0-2.34-.68-3.1-2.48-3.1h-1.37v10.8h-3.96v-25.2ZM68.99,50.31c1.48,0,2.38-.65,2.38-2.66v-1.94c0-1.8-.61-2.59-2.02-2.59h-1.8v7.2h1.44Z"/>
    <path class="cls-3" d="M83.31,39.52h5.36l4.1,25.2h-3.96l-.72-5v.07h-4.5l-.72,4.93h-3.67l4.1-25.2ZM87.63,56.36l-1.76-12.45h-.07l-1.73,12.45h3.56Z"/>
    <path class="cls-3" d="M96.85,39.52h3.96v10.62l5.04-10.62h3.96l-4.72,9.25,4.79,15.95h-4.14l-3.35-11.23-1.58,3.2v8.03h-3.96v-25.2Z"/>
    <path class="cls-3" d="M113.91,39.52h3.96v25.2h-3.96v-25.2Z"/>
    <path class="cls-3" d="M122.99,39.52h4.97l3.85,15.08h.07v-15.08h3.53v25.2h-4.07l-4.75-18.39h-.07v18.39h-3.53v-25.2Z"/>
  </g>
  <g>
    <path class="cls-1" d="M25.95,0C11.64,0,0,11.64,0,25.95c0,7.95,3.59,15.06,9.24,19.83v-4.13c-3.86-4.11-6.24-9.63-6.24-15.7C3,13.3,13.3,3,25.95,3s22.95,10.3,22.95,22.95c0,6.07-2.37,11.59-6.24,15.7v4.13c5.64-4.76,9.24-11.88,9.24-19.83C51.9,11.64,40.26,0,25.95,0Z"/>
    <path class="cls-4" d="M26.05,40.24l-8.41-.02-.04-6.96s.04-1.47-1.61-1.47c-1.95,0-1.95,1.49-1.95,1.49l.04,6.85s-2.9-.42-2.9,3.05c0,3.58,3.11,2.91,3.11,2.91v7.8s.08,1.63,1.06,3.13c.59.9,1.76,1.87,3.19,2.43,0,0,1.61.41,3.85.56v1.57c0,.9.42,1.77,1.2,2.27.49.31,1.16.53,2.45.53"/>
    <polygon class="cls-2" points="16.78 23.3 29.66 6.83 27.06 18.45 35.7 18.44 23.38 35.03 25.77 23.4 16.78 23.3"/>
    <rect class="cls-2" x="1.51" y="23.76" width="2.94" height="2.94"/>
    <path class="cls-4" d="M25.91,40.24l8.41-.02.04-6.96s-.04-1.47,1.61-1.47c1.95,0,1.95,1.49,1.95,1.49l-.04,6.85s2.9-.42,2.9,3.05-3.11,2.91-3.11,2.91v7.8s-.08,1.63-1.06,3.13c-.59.9-1.76,1.87-3.19,2.43,0,0-1.61.41-3.85.56v1.57c0,.9-.42,1.77-1.2,2.27-.49.31-1.16.53-2.45.53"/>
    <rect class="cls-5" x="22.18" y="60.19" width="7.56" height="1.43"/>
    <rect class="cls-5" x="14.09" y="46.32" width="23.74" height="1.44"/>
    <rect class="cls-2" x="47.45" y="23.66" width="2.94" height="2.94"/>
  </g>
</svg>